<?xml version="1.0" encoding="UTF-8"?>
<svg id="Layer_2" data-name="Layer 2" xmlns="http://www.w3.org/2000/svg" viewBox="0 0 350.29 76.23">
  <defs>
    <style>
      .cls-1 {
        fill: #ff9902;
      }

      .cls-2 {
        fill: #fff;
      }
    </style>
  </defs>
  <g id="Layer_1-2" data-name="Layer 1">
    <g>
      <path class="cls-1" d="M45.81,40.26c-.61-.14-1.26-.21-1.91-.21-.53,0-1.06.05-1.56.14l-.09.11-6.96,8.31-3.39,4.05-3.08,3.68c-.24.28-.03.72.34.71l5.27-.02,7.36-.03,4.32-.02h0c3.7-.97,6.42-4.33,6.42-8.33s-2.86-7.53-6.7-8.4Z"/>
      <path class="cls-1" d="M36.88.02C16.56.66-.31,18.4,0,38.72c.1,6.54,1.86,12.69,4.86,18.03,1.13,2.02,3.96,2.23,5.39.41l13.64-17.32,7.69-9.18.16-.19c.24-.28.04-.72-.33-.71l-7.57.03-3.64.02c-.24,0-.44-.19-.44-.43l-.02-3.63-.04-6.59-.02-3.63c0-.24.19-.44.43-.44h3.63s20.86.03,20.86.03c1.56.08,3.05.45,4.41,1.06,1.53.68,2.9,1.65,4.04,2.85.3.32.59.65.86,1,.89,1.15,1.59,2.47,2.04,3.89.17.55.31,1.11.41,1.69.12.7.18,1.42.18,2.15,0,.65-.05,1.29-.14,1.91-.5,3.34-2.31,6.25-4.89,8.2-.23.18-.23.52,0,.69,3.06,2.31,5.04,5.98,5.04,10.11,0,3.18-1.17,6.08-3.1,8.3-1.78,2.04-4.2,3.51-6.95,4.08h-.09s-4.97.03-4.97.03l-16.64.07-4.38.02c-.37,0-.57-.43-.34-.71l2.81-3.36,8.46-10.11,6.7-8,1.98-2.37.51-.6c.12-.14.31-.19.48-.13.31.11.63.2.95.28h0c.62.14,1.26.21,1.92.21.62,0,1.22-.06,1.8-.19l.03-.04s.06,0,.09.01h0c3.21-.73,5.74-3.26,6.48-6.47.12-.53.19-1.08.21-1.64h0c0-.1,0-.19,0-.29,0-.74-.09-1.45-.27-2.14-.22-.85-.56-1.65-1.01-2.38-1.12-1.81-2.88-3.17-4.97-3.77h0c-.75-.21-1.54-.33-2.36-.33-1.07,0-2.46-.07-2.6-.07,0,0-.01,0-.02,0l-6.61.03-10.48.04c-.24,0-.43.2-.43.44l.04,5.72c0,.24.2.43.44.43l7.17-.03,4.12-.02h.22s4.38-.02,4.38-.02c.37,0,.57.43.34.71l-2.81,3.36-1.5,1.79-2.76,3.29-9.47,11.31-12.05,15.33c-1.11,1.42-.94,3.45.39,4.67,6.9,6.37,16.17,10.23,26.33,10.1,20.25-.26,36.95-16.62,37.6-36.86C76.91,17.33,58.91-.68,36.88.02Z"/>
    </g>
    <g>
      <path class="cls-2" d="M103.95,58.23h-9.72V20.83h15.48c4.2,0,7.42,1.09,9.65,3.27,2.23,2.18,3.35,5.26,3.35,9.23s-1.12,7.04-3.35,9.23c-2.23,2.18-5.45,3.27-9.65,3.27h-5.75v12.4ZM103.95,37.99h3.22c3.57,0,5.36-1.55,5.36-4.66s-1.79-4.66-5.36-4.66h-3.22v9.33Z"/>
      <path class="cls-2" d="M134.5,47.02c0,3.87,1.82,5.8,5.46,5.8,1.95,0,3.42-.79,4.41-2.38h8.68c-1.75,5.82-6.13,8.73-13.15,8.73-2.15,0-4.12-.32-5.9-.97-1.79-.65-3.32-1.56-4.59-2.75-1.27-1.19-2.26-2.61-2.95-4.27-.69-1.65-1.04-3.5-1.04-5.56s.33-4.03.99-5.73c.66-1.7,1.6-3.15,2.83-4.34,1.22-1.19,2.7-2.11,4.44-2.75,1.74-.65,3.7-.97,5.88-.97s4.08.32,5.8.97c1.72.64,3.17,1.58,4.37,2.8,1.19,1.22,2.1,2.72,2.73,4.49.63,1.77.94,3.76.94,5.98v.94h-18.9ZM145.02,41.81c-.3-1.26-.91-2.27-1.84-3.03-.93-.76-2.05-1.14-3.37-1.14-1.39,0-2.52.36-3.4,1.09-.88.73-1.43,1.75-1.66,3.08h10.27Z"/>
      <path class="cls-2" d="M166.8,44.44l-10.32-11.66h11.71l4.37,5.26,4.46-5.26h11.71l-10.57,11.66,12.75,13.79h-11.91l-6.5-7.54-6.55,7.54h-11.86l12.7-13.79Z"/>
      <path class="cls-2" d="M193.39,23.01c0-.69.13-1.35.4-1.96.26-.61.63-1.15,1.09-1.61.46-.46,1-.83,1.61-1.09.61-.26,1.27-.4,1.96-.4s1.35.13,1.96.4c.61.27,1.15.63,1.61,1.09.46.46.83,1,1.09,1.61.26.61.4,1.27.4,1.96s-.13,1.35-.4,1.96c-.27.61-.63,1.15-1.09,1.61s-1,.83-1.61,1.09c-.61.27-1.27.4-1.96.4s-1.35-.13-1.96-.4c-.61-.26-1.15-.63-1.61-1.09-.46-.46-.83-1-1.09-1.61-.26-.61-.4-1.27-.4-1.96ZM202.96,32.78v25.45h-8.98v-25.45h8.98Z"/>
      <path class="cls-2" d="M209.95,20.83h14.48c3.44,0,6.05.83,7.84,2.48,1.79,1.65,2.68,4.04,2.68,7.14,0,1.88-.34,3.45-1.02,4.69-.68,1.24-1.71,2.29-3.1,3.15,1.39.26,2.57.67,3.55,1.22.98.55,1.77,1.22,2.38,2.01.61.79,1.05,1.69,1.31,2.68.26.99.4,2.05.4,3.17,0,1.75-.31,3.31-.92,4.66-.61,1.36-1.47,2.5-2.58,3.42-1.11.93-2.46,1.62-4.04,2.08-1.59.46-3.37.69-5.36.69h-15.63V20.83ZM219.68,35.51h1.79c3.04,0,4.56-1.21,4.56-3.62s-1.52-3.62-4.56-3.62h-1.79v7.24ZM219.68,50.69h2.13c2.45,0,4.2-.31,5.26-.94,1.06-.63,1.59-1.64,1.59-3.03s-.53-2.4-1.59-3.03c-1.06-.63-2.81-.94-5.26-.94h-2.13v7.94Z"/>
      <path class="cls-2" d="M252.42,17.06v41.17h-8.98V17.06h8.98Z"/>
      <path class="cls-2" d="M257.57,45.28c0-1.88.38-3.65,1.14-5.28.76-1.64,1.82-3.06,3.17-4.27,1.36-1.21,2.97-2.16,4.84-2.85,1.87-.69,3.91-1.04,6.13-1.04s4.21.34,6.08,1.02c1.87.68,3.49,1.62,4.86,2.83,1.37,1.21,2.44,2.65,3.2,4.32.76,1.67,1.14,3.51,1.14,5.53s-.39,3.86-1.17,5.53c-.78,1.67-1.84,3.11-3.2,4.32-1.36,1.21-2.98,2.14-4.89,2.8-1.9.66-3.96.99-6.18.99s-4.2-.33-6.05-.99-3.45-1.6-4.79-2.83c-1.34-1.22-2.39-2.69-3.15-4.39-.76-1.7-1.14-3.6-1.14-5.68ZM267.05,45.38c0,.86.16,1.65.47,2.36.31.71.73,1.33,1.24,1.86.51.53,1.12.94,1.84,1.24.71.3,1.46.45,2.26.45s1.55-.15,2.26-.45c.71-.3,1.32-.71,1.84-1.24.51-.53.93-1.15,1.24-1.86.31-.71.47-1.48.47-2.31s-.16-1.55-.47-2.26c-.31-.71-.73-1.33-1.24-1.86-.51-.53-1.12-.94-1.84-1.24-.71-.3-1.46-.45-2.26-.45s-1.55.15-2.26.45c-.71.3-1.32.71-1.84,1.24-.51.53-.93,1.14-1.24,1.84-.31.69-.47,1.44-.47,2.23Z"/>
      <path class="cls-2" d="M312.49,41.02c-1.56-1.06-3.13-1.59-4.71-1.59-.86,0-1.66.15-2.41.45-.74.3-1.4.72-1.96,1.26-.56.55-1,1.19-1.31,1.93-.31.74-.47,1.58-.47,2.51s.16,1.71.47,2.46c.31.74.74,1.39,1.29,1.93.55.55,1.2.97,1.96,1.26.76.3,1.57.45,2.43.45,1.69,0,3.26-.58,4.71-1.74v7.64c-2.22.96-4.32,1.44-6.3,1.44-1.85,0-3.61-.31-5.28-.94-1.67-.63-3.14-1.53-4.42-2.7-1.27-1.17-2.29-2.58-3.05-4.22-.76-1.64-1.14-3.46-1.14-5.48s.36-3.86,1.09-5.53c.73-1.67,1.72-3.11,2.98-4.32,1.26-1.21,2.75-2.15,4.49-2.83,1.74-.68,3.6-1.02,5.58-1.02,2.18,0,4.2.46,6.05,1.39v7.64Z"/>
      <path class="cls-2" d="M327.82,17.06v24.9l9.42-9.18h12.3l-12.75,11.76,13.49,13.69h-12.6l-9.87-10.37v10.37h-8.98V17.06h8.98Z"/>
    </g>
  </g>
</svg>